<svg width="402.506" height="56.612" viewBox="0 0 502.506 156.612" xmlns="http://www.w3.org/2000/svg">
<g id="svgGroup" strokeLinecap="round" fill-rule="evenodd" font-size="9pt" stroke="#000" strokeWidth="0.9mm" fill="#000" 
style="stroke:#000;stroke-width:0.9mm;fill:#000"
style={{ stroke:col , strokeWidth:"0.9mm" , fill:col }}>
<path d="M 301.504 151.803 L 301.504 4.803 L 327.904 4.803 L 327.904 25.203 L 329.104 25.203
 A 44.422 44.422 0 0 1 339.615 13.109 A 59.663 59.663 0 0 1 348.454 7.203 A 56.431 56.431 0 0 1
  369.485 0.347 A 54.186 54.186 0 0 1 375.604 0.003 A 75.443 75.443 0 0 1 392.339 1.746 Q 403.703 4.331
   411.979 10.748 A 44.857 44.857 0 0 1 417.154 15.453 Q 430.027 29.122 431.51 53.007 A 103.192 103.192
    0 0 1 431.704 59.403 L 431.704 151.803 L 404.104 151.803 L 404.104 61.203 A 52.972 52.972 0 0 0 401.942
     46.792 Q 396.905 30.621 380.261 26.562 A 52.657 52.657 0 0 0 367.804 25.203 A 33.995 33.995 0 0 0
    342.332 36.167 A 45.036 45.036 0 0 0 340.204 38.553 A 47.884 47.884 0 0 0 329.147 68.198 A 60.736 60.736
    0 0 0 329.104 70.503 L 329.104 151.803 L 301.504 151.803 Z M 281.104 4.803 L 229.804 77.103 L 282.304 151.803
    L 249.904 151.803 L 213.604 97.503 L 177.904 151.803 L 145.504 151.803 L 197.404 77.103 L 146.704 4.803 L 
    177.904 4.803 L 214.204 56.703 L 248.704 4.803 L 281.104 4.803 Z M 130.204 61.203 L 130.204 151.803 L 103.804
     151.803 L 103.804 131.403 L 102.604 131.403 A 62.382 62.382 0 0 1 88.509 146.511 A 51.091 51.091 0 0 1 57.004 
     156.603 A 67.592 67.592 0 0 1 36.776 153.697 A 55.655 55.655 0 0 1 16.354 142.203 A 47.734 47.734 0 0 1 3.717 
     125.155 A 47.582 47.582 0 0 1 0.004 106.203 Q 0.004 83.403 17.254 69.903 A 60.006 60.006 0 0 1 38.841 59.369 Q 
     47.406 57.051 57.519 56.544 A 115.566 115.566 0 0 1 63.304 56.403 Q 87.904 56.403 103.804 65.403 L 103.804 59.103 A 
     31.073 31.073 0 0 0 93.867 36.006 A 41.232 41.232 0 0 0 92.404 34.653 Q 81.004 
     24.603 65.704 24.603 Q 44.138 24.603 30.939 41.599 A 56.713 56.713 0 0 0 29.104 44.103 L 4.804 28.803 A 65.128 
     65.128 0 0 1 52.391 0.706 A 96.006 96.006 0 0 1 64.204 
     0.003 A 92.485 92.485 0 0 1 84.125 2.023 Q 97.527 4.979 107.519 12.257 A 55.5 55.5 0 0 1 112.504 16.353 A 53.852 53.852 0 0 1 129.027 47.315 A 78.405 
     78.405 0 0 1 130.204 61.203 Z M 28.504 106.803 A 21.57 21.57 0 0 0 35.754 123.177 A 29.836 29.836 0 0 0 37.654 124.803 A 33.56 33.56 0 0 0 
     58.529 131.999 A 41.65 41.65 0 0 0 59.104 132.003 Q
      76.504 132.003 90.154 119.103 A 45.47 45.47 0 0 0 99.485 106.954 A 38.976 38.976 0 0 0 103.804 88.803 A 43.3 43.3 0 0 0 89.469 81.481 Q 83.304 79.592 75.9 78.943 A 92.729 92.729 
      0 0 0 67.804 78.603 A 57.644 57.644 0 0 0 55.07 79.939 A 41.603 41.603 0 0 0 39.754 86.703 A 31.222 
      31.222 0 0 0 33.406 92.658 A 22.241 22.241 0 0 0 28.504 106.803 Z M 502.504 133.203 Q 502.504 141.603 496.654 147.603 A 19.434 19.434 0 0 1 482.51 153.599
       A 24.943 24.943 0 0 1 482.104 153.603 A 19.61 19.61 0 0 1 467.892 147.789 A 24.075 24.075 0 0 1 467.704 147.603 A 19.62 19.62 0 0 1 461.705 133.464 A 23.365
      23.365 0 0 1 461.704 133.203 A 20.711 20.711 0 0 1 463.251 125.102 A 19.527 19.527 0 0 1 467.704 118.653 Q 473.704 112.803 482.104 112.803 A 21.269 
      21.269 0 0 1 489.977 114.22 A 19.511 19.511 0 0 1 
      496.654 118.653 A 19.702 19.702 0 0 1 502.502 132.931 A 25.677 25.677 0 0 1 502.504 133.203 Z" vector-effect="non-scaling-stroke"/>
</g></svg>